<svg height="480pt" viewBox="-120 0 480 480" width="480pt" xmlns="http://www.w3.org/2000/svg"><path d="m232.625 400.9375-5.753906-51.738281c-1.558594-14.089844-1.558594-28.308594 0-42.398438l2.984375-26.800781h-218.671875l2.984375 26.800781c1.558593 14.089844 1.558593 28.308594 0 42.398438l-5.75 51.738281c-2.011719 18.089844 3.78125 36.183594 15.921875 49.746094s29.480468 21.316406 47.683594 21.316406h96.992187c18.203125 0 35.546875-7.753906 47.6875-21.316406s17.929687-31.65625 15.921875-49.746094zm0 0" fill="#ffeb99"/><path d="m48.519531 280h181.335938l2.769531-24.9375c2.007812-18.089844-3.78125-36.183594-15.921875-49.746094s-29.484375-21.316406-47.6875-21.316406h-96.992187c-18.203126 0-35.542969 7.753906-47.683594 21.316406s-17.933594 31.65625-15.921875 49.746094l2.765625 24.9375zm0 0" fill="#f1f2f2"/><path d="m40.441406 400.960938 5.757813-51.761719c1.519531-14.089844 1.519531-28.308594 0-42.398438l-3.039063-26.800781h-32l3.039063 26.800781c1.519531 14.089844 1.519531 28.308594 0 42.398438l-5.757813 51.761719c-2.019531 18.089843 3.765625 36.183593 15.90625 49.746093 12.144532 13.5625 29.488282 21.308594 47.691406 21.292969h32c-18.203124.015625-35.546874-7.730469-47.691406-21.292969-12.140625-13.5625-17.925781-31.65625-15.90625-49.746093zm0 0" fill="#ffe477"/><path d="m104.039062 184h-32c-18.203124-.015625-35.546874 7.730469-47.691406 21.292969-12.140625 13.5625-17.925781 31.65625-15.90625 49.746093l2.71875 24.960938h32l-2.71875-24.960938c-2.019531-18.089843 3.765625-36.183593 15.90625-49.746093 12.144532-13.5625 29.488282-21.308594 47.691406-21.292969zm0 0" fill="#e6e7e8"/><path d="m192.519531 136h-144c-8.835937 0-16 7.164062-16 16v16c0 8.835938 7.164063 16 16 16h144c8.835938 0 16-7.164062 16-16v-16c0-8.835938-7.164062-16-16-16zm0 0" fill="#f072ae"/><path d="m80.519531 184h-32c-8.824219-.027344-15.972656-7.175781-16-16v-16c.027344-8.824219 7.175781-15.972656 16-16h32c-8.824219.027344-15.972656 7.175781-16 16v16c.027344 8.824219 7.175781 15.972656 16 16zm0 0" fill="#ed539d"/><path d="m184.519531 131.878906c0-12.726562-5.054687-24.933594-14.054687-33.933594l-3.886719-3.890624c-9-9-14.058594-21.207032-14.058594-33.933594v-20.121094c0-17.671875-14.324219-32-32-32-17.671875 0-32 14.328125-32 32v20.121094c0 12.726562-5.054687 24.933594-14.054687 33.933594l-3.886719 3.890624c-9 9-14.058594 21.207032-14.058594 33.933594v4.121094h128zm0 0" fill="#f1f2f2"/><g fill="#231f20"><path d="m176.519531 384h-16c-4.417969 0-8-3.582031-8-8s3.582031-8 8-8h16c4.417969 0 8 3.582031 8 8s-3.582031 8-8 8zm0 0"/><path d="m176.519531 416h-16c-4.417969 0-8-3.582031-8-8s3.582031-8 8-8h16c4.417969 0 8 3.582031 8 8s-3.582031 8-8 8zm0 0"/><path d="m176.519531 448h-16c-4.417969 0-8-3.582031-8-8s3.582031-8 8-8h16c4.417969 0 8 3.582031 8 8s-3.582031 8-8 8zm0 0"/><path d="m234.832031 348.320312c-1.503906-13.503906-1.503906-27.136718 0-40.640624l5.746094-51.726563c3.15625-27.550781-9.914063-54.441406-33.53125-68.976563 5.949219-4.5 9.449219-11.519531 9.472656-18.976562v-16c0-13.253906-10.746093-24-24-24h-.191406c-.878906-13.480469-6.640625-26.175781-16.207031-35.710938l-3.878906-3.890624c-7.527344-7.480469-11.75-17.664063-11.722657-28.277344v-20.121094c0-22.089844-17.90625-40-40-40-22.089843 0-40 17.910156-40 40v20.121094c.027344 10.617187-4.195312 20.800781-11.726562 28.285156l-3.863281 3.875c-9.570313 9.535156-15.335938 22.234375-16.21875 35.71875h-.191407c-13.253906 0-24 10.746094-24 24v16c.023438 7.457031 3.527344 14.476562 9.472657 18.976562-23.613282 14.535157-36.683594 41.425782-33.527344 68.976563l5.742187 51.726563c1.503907 13.503906 1.503907 27.136718 0 40.640624l-5.742187 51.726563c-2.261719 20.355469 4.25 40.710937 17.910156 55.972656 13.65625 15.257813 33.167969 23.980469 53.648438 23.980469h96.992187c20.480469 0 39.992187-8.722656 53.652344-23.980469 13.65625-15.261719 20.171875-35.617187 17.910156-55.972656zm-158.582031-244.726562 3.863281-3.875c10.539063-10.476562 16.445313-24.738281 16.40625-39.597656v-20.121094c0-13.253906 10.746094-24 24-24 13.253907 0 24 10.746094 24 24v20.121094c-.039062 14.855468 5.867188 29.113281 16.402344 39.589844l3.878906 3.890624c6.578125 6.535157 10.65625 15.167969 11.535157 24.398438h-111.632813c.878906-9.234375 4.964844-17.871094 11.546875-24.40625zm-35.730469 48.40625c0-4.417969 3.582031-8 8-8h144c4.417969 0 8 3.582031 8 8v16c0 4.417969-3.582031 8-8 8v-8c0-4.417969-3.582031-8-8-8s-8 3.582031-8 8v8h-16v-8c0-4.417969-3.582031-8-8-8s-8 3.582031-8 8v8h-16v-8c0-4.417969-3.582031-8-8-8s-8 3.582031-8 8v8h-16v-8c0-4.417969-3.582031-8-8-8s-8 3.582031-8 8v8h-16v-8c0-4.417969-3.582031-8-8-8s-8 3.582031-8 8v8c-4.417969 0-8-3.582031-8-8zm170.21875 293.34375c-10.625 11.863281-25.796875 18.648438-41.722656 18.65625h-96.992187c-15.925782 0-31.101563-6.785156-41.726563-18.652344-10.621094-11.871094-15.6875-27.699218-13.929687-43.53125l5.746093-51.726562c1.632813-14.683594 1.632813-29.496094 0-44.179688l-1.984375-17.910156h28.390625c4.417969 0 8-3.582031 8-8s-3.582031-8-8-8h-30.167969l-1.984374-17.816406c-1.757813-15.832032 3.308593-31.660156 13.929687-43.53125 10.625-11.867188 25.800781-18.652344 41.726563-18.652344h96.992187c15.929687 0 31.105469 6.785156 41.726563 18.652344 10.625 11.871094 15.6875 27.699218 13.929687 43.53125l-1.984375 17.816406h-142.167969c-4.417969 0-8 3.582031-8 8s3.582031 8 8 8h140.394531l-1.992187 17.910156c-1.632813 14.683594-1.632813 29.496094 0 44.179688l5.742187 51.726562c1.753907 15.828125-3.3125 31.65625-13.925781 43.527344zm0 0"/><path d="m176.519531 304h-16c-4.417969 0-8 3.582031-8 8s3.582031 8 8 8h16c4.417969 0 8-3.582031 8-8s-3.582031-8-8-8zm0 0"/><path d="m176.519531 336h-16c-4.417969 0-8 3.582031-8 8s3.582031 8 8 8h16c4.417969 0 8-3.582031 8-8s-3.582031-8-8-8zm0 0"/></g></svg>