<svg height="512pt" viewBox="0 0 512 512" width="512pt" xmlns="http://www.w3.org/2000/svg"><path d="m426.667969 256c0 94.257812-76.410157 170.667969-170.667969 170.667969s-170.667969-76.410157-170.667969-170.667969 76.410157-170.667969 170.667969-170.667969 170.667969 76.410157 170.667969 170.667969zm0 0" fill="#ffc107"/><path d="m133.972656 143.359375-106.664062-106.667969c-4.589844-4.585937-11.4375-5.949218-17.429688-3.476562-5.976562 2.476562-9.878906 8.300781-9.878906 14.785156v106.667969c0 8.832031 7.167969 16 16 16h106.667969c6.484375 0 12.308593-3.90625 14.78125-9.878907 2.476562-5.972656 1.109375-12.84375-3.476563-17.429687zm0 0" fill="#607d8b"/><path d="m256 512c-68.457031 0-132.734375-26.667969-180.949219-75.113281-8.320312-8.34375-8.277343-21.847657.085938-30.167969 8.320312-8.339844 21.84375-8.277344 30.164062.085938 40.128907 40.320312 93.675781 62.527343 150.699219 62.527343 117.632812 0 213.332031-95.699219 213.332031-213.332031s-95.699219-213.332031-213.332031-213.332031c-71.914062 0-145.707031 36.585937-188.011719 93.183593-7.039062 9.429688-20.414062 11.390626-29.84375 4.308594-9.429687-7.039062-11.371093-20.417968-4.308593-29.84375 50.835937-68.054687 135.957031-110.316406 222.164062-110.316406 141.164062 0 256 114.835938 256 256s-114.835938 256-256 256zm0 0" fill="#607d8b"/><g fill="#fafafa"><path d="m224 208v96c0 8.832031-7.167969 16-16 16s-16-7.167969-16-16v-80c-8.832031 0-16-7.167969-16-16s7.167969-16 16-16h16c8.832031 0 16 7.167969 16 16zm0 0"/><path d="m304 192h-10.667969c-20.585937 0-37.332031 16.746094-37.332031 37.332031v53.335938c0 20.585937 16.746094 37.332031 37.332031 37.332031h10.667969c20.585938 0 37.332031-16.746094 37.332031-37.332031v-53.335938c0-20.585937-16.746093-37.332031-37.332031-37.332031zm5.332031 90.667969c0 2.941406-2.386719 5.332031-5.332031 5.332031h-10.667969c-2.941406 0-5.332031-2.390625-5.332031-5.332031v-53.335938c0-2.941406 2.390625-5.332031 5.332031-5.332031h10.667969c2.945312 0 5.332031 2.390625 5.332031 5.332031zm0 0"/></g></svg>