<svg height="480pt" viewBox="-88 0 480 480" width="480pt" xmlns="http://www.w3.org/2000/svg" xmlns:xlink="http://www.w3.org/1999/xlink"><linearGradient id="lg1"><stop offset="0" stop-color="#006df0"/><stop offset="1" stop-color="#00e7f0"/></linearGradient><linearGradient id="linear0" gradientUnits="userSpaceOnUse" x1="152" x2="152" xlink:href="#lg1" y1="519.672" y2="-5.952"/><linearGradient id="linear2" gradientUnits="userSpaceOnUse" x1="184" x2="184" xlink:href="#lg1" y1="519.672" y2="-5.952"/><linearGradient id="linear3" gradientUnits="userSpaceOnUse" x1="120" x2="120" xlink:href="#lg1" y1="519.672" y2="-5.952"/><path d="m152 0c-83.910156.09375-151.90625 68.089844-152 152v176c0 83.949219 68.050781 152 152 152s152-68.050781 152-152v-176c-.09375-83.910156-68.089844-151.90625-152-152zm-136 328v-44.65625l174.625 174.992188c-41.136719 12.269531-85.648438 4.367187-120.050781-21.308594-34.398438-25.675782-54.636719-66.101563-54.574219-109.027344zm191.128906 124.214844-191.128906-191.527344v-108.6875c0-75.109375 60.890625-136 136-136s136 60.890625 136 136v176c-.042969 11.09375-1.449219 22.140625-4.191406 32.886719l-30.207032-30.292969c-2.007812-2.085938-4.980468-2.921875-7.777343-2.195312-2.800781.730468-4.984375 2.910156-5.722657 5.707031-.734374 2.796875.09375 5.769531 2.171876 7.78125l36.0625 36.160156c-13.171876 33.054687-38.71875 59.664063-71.207032 74.167969zm0 0" fill="url(#linear0)"/><path d="m138.03125 214.785156c43.082031 6.925782 84.730469-18.78125 97.847656-60.398437 13.117188-41.613281-6.261718-86.558594-45.527344-105.585938-3.976562-1.929687-8.761718-.269531-10.691406 3.707031-1.929687 3.976563-.269531 8.761719 3.707032 10.691407 30.445312 14.753906 46.511718 48.710937 38.613281 81.605469-7.898438 32.894531-37.632813 55.855468-71.453125 55.175781-33.824219-.679688-62.613282-24.816407-69.183594-58-6.574219-33.183594 10.84375-66.46875 41.855469-79.988281 4.027343-1.78125 5.855469-6.480469 4.09375-10.515626-1.761719-4.035156-6.449219-5.886718-10.492188-4.148437-28.503906 12.410156-48.328125 38.949219-52.136719 69.800781-3.8125 30.851563 8.957032 61.421875 33.582032 80.390625.042968 0 .050781.097657.089844.136719l120.113281 120.375c3.121093 3.128906 8.1875 3.132812 11.316406.011719 3.125-3.121094 3.132813-8.1875.011719-11.316407zm0 0" fill="url(#linear0)"/><path d="m208 104c0-4.417969-3.582031-8-8-8s-8 3.582031-8 8-3.582031 8-8 8-8-3.582031-8-8-3.582031-8-8-8-8 3.582031-8 8c0 13.253906 10.746094 24 24 24s24-10.746094 24-24zm0 0" fill="url(#linear2)"/><path d="m120 112c-4.417969 0-8-3.582031-8-8s-3.582031-8-8-8-8 3.582031-8 8c0 13.253906 10.746094 24 24 24s24-10.746094 24-24c0-4.417969-3.582031-8-8-8s-8 3.582031-8 8-3.582031 8-8 8zm0 0" fill="url(#linear3)"/><g fill="url(#linear0)"><path d="m136 56c4.417969 0 8-3.582031 8-8s3.582031-8 8-8 8 3.582031 8 8-3.582031 8-8 8-8 3.582031-8 8 3.582031 8 8 8c13.253906 0 24-10.746094 24-24s-10.746094-24-24-24-24 10.746094-24 24c0 4.417969 3.582031 8 8 8zm0 0"/><path d="m166.878906 150.054688c-4.382812.550781-7.496094 4.550781-6.941406 8.9375.3125 2.457031-.53125 4.921874-2.28125 6.671874-3.171875 3.015626-8.148438 3.015626-11.320312 0-1.746094-1.746093-2.585938-4.199218-2.28125-6.648437.410156-4.308594-2.679688-8.164063-6.976563-8.699219-4.296875-.53125-8.238281 2.453125-8.894531 6.730469-1.148438 9.214844 3.125 18.265625 10.96875 23.238281s17.851562 4.972656 25.695312 0 12.117188-14.023437 10.96875-23.238281c-.253906-2.113281-1.335937-4.039063-3.015625-5.351563-1.675781-1.3125-3.808593-1.902343-5.921875-1.640624zm0 0"/></g></svg>