<?xml version="1.0"?>
<svg xmlns="http://www.w3.org/2000/svg" xmlns:xlink="http://www.w3.org/1999/xlink" viewBox="0 0 64 64" width="512" height="512"><defs><linearGradient id="New_Gradient_Swatch_3" x1="32.31" y1="61.292" x2="29.909" y2="4.862" gradientUnits="userSpaceOnUse"><stop offset="0" stop-color="#006df0"/><stop offset="1" stop-color="#00e7f0"/></linearGradient><linearGradient id="New_Gradient_Swatch_3-2" x1="14.015" y1="62.071" x2="11.614" y2="5.641" xlink:href="#New_Gradient_Swatch_3"/><linearGradient id="New_Gradient_Swatch_3-3" x1="39.553" y1="60.984" x2="37.151" y2="4.554" xlink:href="#New_Gradient_Swatch_3"/><linearGradient id="New_Gradient_Swatch_3-4" x1="34.615" y1="61.194" x2="32.213" y2="4.764" xlink:href="#New_Gradient_Swatch_3"/><linearGradient id="New_Gradient_Swatch_3-5" x1="46.094" y1="60.706" x2="43.693" y2="4.276" xlink:href="#New_Gradient_Swatch_3"/></defs><g id="Weight_scale" data-name="Weight scale"><path d="M61,50H14V19.475a9,9,0,1,0-6,0V50H3a1,1,0,0,0-1,1v6a1,1,0,0,0,1,1H6v3a1,1,0,0,0,1,1h8a1,1,0,0,0,1-1V58H48v3a1,1,0,0,0,1,1h8a1,1,0,0,0,1-1V58h3a1,1,0,0,0,1-1V51A1,1,0,0,0,61,50ZM4,11a7,7,0,1,1,7,7A7.008,7.008,0,0,1,4,11Zm6,8.941a8.5,8.5,0,0,0,2,0V50H10ZM14,60H8V58h6Zm42,0H50V58h6Zm4-4H4V52H60Z" style="fill:url(#New_Gradient_Swatch_3)"/><path d="M13,11a1.979,1.979,0,0,0-.273-.991L14.366,7.17a1,1,0,0,0-1.732-1L11,9a2,2,0,1,0,2,2Z" style="fill:url(#New_Gradient_Swatch_3-2)"/><path d="M17,47a1,1,0,0,0,0,2H61a1,1,0,0,0,0-2H57V22a1,1,0,0,0-1-1H22a1,1,0,0,0-1,1V47Zm6-24H55V47H23Z" style="fill:url(#New_Gradient_Swatch_3-3)"/><path d="M37.759,28.35a1,1,0,0,0-1.41-.109L31,32.826V29a1,1,0,0,0-2,0V41a1,1,0,0,0,2,0V35.536l5.241,6.114a1,1,0,1,0,1.518-1.3L32.48,34.191l5.171-4.432A1,1,0,0,0,37.759,28.35Z" style="fill:url(#New_Gradient_Swatch_3-4)"/><path d="M45,30a2,2,0,0,1,2,2,1,1,0,0,0,2,0,4,4,0,0,0-8,0v6a4,4,0,0,0,8,0V35a1,1,0,0,0-1-1H45a1,1,0,0,0,0,2h2v2a2,2,0,0,1-4,0V32A2,2,0,0,1,45,30Z" style="fill:url(#New_Gradient_Swatch_3-5)"/></g></svg>
